<svg width="60" height="60" viewBox="0 0 60 60" fill="none" xmlns="http://www.w3.org/2000/svg">
<mask id="mask0_1571_94" style="mask-type:luminance" maskUnits="userSpaceOnUse" x="0" y="0" width="60" height="60">
<path d="M0 0H60V60H0V0Z" fill="white"/>
</mask>
<g mask="url(#mask0_1571_94)">
<path d="M51.2141 8.78594C45.5469 3.12031 38.0141 0 30 0C21.9859 0 14.4531 3.12031 8.78594 8.78594C3.12031 14.4531 0 21.9859 0 30C0 38.0141 3.12031 45.5469 8.78594 51.2141C14.4531 56.8797 21.9859 60 30 60C38.0141 60 45.5469 56.8797 51.2141 51.2141C56.8797 45.5469 60 38.0141 60 30C60 21.9859 56.8797 14.4531 51.2141 8.78594ZM47.9453 49.7891V49.2016C47.9453 43.9891 43.7188 39.7641 38.5063 39.7641H22.1469C16.9344 39.7641 12.7094 43.9891 12.7094 49.2016V50.3625C6.94062 45.4562 3.27188 38.1484 3.27188 30C3.27188 15.2625 15.2625 3.27188 30 3.27188C44.7375 3.27188 56.7281 15.2625 56.7281 30C56.7281 37.8375 53.3359 44.8969 47.9453 49.7891Z" fill="#FF712A"/>
</g>
<path d="M40.8549 26.3453C40.8549 26.7031 40.8361 27.0594 40.8018 27.414C40.7674 27.7703 40.7143 28.1234 40.6439 28.4734C40.5752 28.8234 40.4877 29.1703 40.3846 29.5125C40.2814 29.8531 40.1611 30.189 40.0236 30.5203C39.8877 30.85 39.7346 31.1719 39.5658 31.4875C39.3971 31.8031 39.2143 32.1094 39.0158 32.4062C38.8174 32.7031 38.6049 32.989 38.3783 33.2656C38.1518 33.5422 37.9111 33.8062 37.6596 34.0594C37.4064 34.3109 37.1424 34.5515 36.8658 34.7781C36.5893 35.0047 36.3033 35.2172 36.0064 35.4156C35.7096 35.614 35.4033 35.7969 35.0877 35.9656C34.7721 36.1344 34.4502 36.2875 34.1205 36.4234C33.7893 36.5609 33.4533 36.6812 33.1127 36.7844C32.7705 36.8875 32.4236 36.975 32.0736 37.0437C31.7236 37.114 31.3705 37.1672 31.0143 37.2015C30.6596 37.2359 30.3033 37.2547 29.9455 37.2547C29.5877 37.2547 29.2314 37.2359 28.8768 37.2015C28.5205 37.1672 28.1674 37.114 27.8174 37.0437C27.4674 36.975 27.1205 36.8875 26.7783 36.7844C26.4361 36.6812 26.1002 36.5609 25.7705 36.4234C25.4408 36.2875 25.1174 36.1344 24.8033 35.9656C24.4877 35.7969 24.1814 35.614 23.8846 35.4156C23.5877 35.2172 23.3018 35.0047 23.0252 34.7781C22.7486 34.5515 22.4846 34.3109 22.2314 34.0594C21.9783 33.8062 21.7393 33.5422 21.5127 33.2656C21.2861 32.989 21.0736 32.7031 20.8752 32.4062C20.6768 32.1094 20.4924 31.8031 20.3252 31.4875C20.1564 31.1719 20.0033 30.85 19.8674 30.5203C19.7299 30.189 19.6096 29.8531 19.5064 29.5125C19.4018 29.1703 19.3158 28.8234 19.2455 28.4734C19.1768 28.1234 19.1236 27.7703 19.0893 27.414C19.0533 27.0594 19.0361 26.7031 19.0361 26.3453C19.0361 25.9875 19.0533 25.6312 19.0893 25.2765C19.1236 24.9203 19.1768 24.5672 19.2455 24.2172C19.3158 23.8672 19.4018 23.5203 19.5064 23.1781C19.6096 22.8359 19.7299 22.5 19.8674 22.1703C20.0033 21.8406 20.1564 21.5172 20.3252 21.2031C20.4924 20.8875 20.6768 20.5812 20.8752 20.2844C21.0736 19.9875 21.2861 19.7015 21.5127 19.425C21.7393 19.1484 21.9783 18.8844 22.2314 18.6312C22.4846 18.3781 22.7486 18.139 23.0252 17.9125C23.3018 17.6859 23.5877 17.4734 23.8846 17.275C24.1814 17.0765 24.4877 16.8922 24.8033 16.725C25.1174 16.5562 25.4408 16.4031 25.7705 16.2672C26.1002 16.1297 26.4361 16.0094 26.7783 15.9062C27.1205 15.8015 27.4674 15.7156 27.8174 15.6453C28.1674 15.5765 28.5205 15.5234 28.8768 15.489C29.2314 15.4531 29.5877 15.4359 29.9455 15.4359C30.3033 15.4359 30.6596 15.4531 31.0143 15.489C31.3705 15.5234 31.7236 15.5765 32.0736 15.6453C32.4236 15.7156 32.7705 15.8015 33.1127 15.9062C33.4533 16.0094 33.7893 16.1297 34.1205 16.2672C34.4502 16.4031 34.7721 16.5562 35.0877 16.725C35.4033 16.8922 35.7096 17.0765 36.0064 17.275C36.3033 17.4734 36.5893 17.6859 36.8658 17.9125C37.1424 18.139 37.4064 18.3781 37.6596 18.6312C37.9111 18.8844 38.1518 19.1484 38.3783 19.425C38.6049 19.7015 38.8174 19.9875 39.0158 20.2844C39.2143 20.5812 39.3971 20.8875 39.5658 21.2031C39.7346 21.5172 39.8877 21.8406 40.0236 22.1703C40.1611 22.5 40.2814 22.8359 40.3846 23.1781C40.4877 23.5203 40.5752 23.8672 40.6439 24.2172C40.7143 24.5672 40.7674 24.9203 40.8018 25.2765C40.8361 25.6312 40.8549 25.9875 40.8549 26.3453Z" fill="#FF712A"/>
</svg>
